# xmcd
#
# Track frame offsets:
#	182
#	15437
#	26675
#	52890
#	67645
#	81900
#	95170
#	108842
#	122792
#	135977
#	147835
#	161025
#	175442
#	187967
#
# Disc length: 2675 seconds
#
# Revision: 0
# Processed by: cddbd v1.4PL0 Copyright (c) Steve Scherf et al.
# Submitted via: dBpowerAMP V4.0
#
DISCID=b00a710e
DTITLE=Mickey Newbury - Harlequin Melodies
DYEAR=1968
DGENRE=Country
TTITLE0=Sweet Memories
TTITLE1=Here Comes The Rain, Baby
TTITLE2=Mister, Can't You See
TTITLE3=How Many Times Must The Piper Be Paid For His Song
TTITLE4=Are My Thoughts With You
TTITLE5=Harlequin Melodies
TTITLE6=Funny, Familiar, Forgotten Feelings
TTITLE7=Time Is A Thief
TTITLE8=Good Morning, Dear
TTITLE9=Weeping Annaleah
TTITLE10=Just Dropped In
TTITLE11=The Queen
TTITLE12=Sunshine
TTITLE13=Got Down On Saturday
EXTD=
EXTT0=
EXTT1=
EXTT2=
EXTT3=
EXTT4=
EXTT5=
EXTT6=
EXTT7=
EXTT8=
EXTT9=
EXTT10=
EXTT11=
EXTT12=
EXTT13=
PLAYORDER=
